  0
SECTION
  2
HEADER
  9
$ACADVER
  1
AC1009
  9
$FILLMODE
 70
0
  9
$EXTMIN
 10
-9.0412
 20
-8.1110
 30
0.0000
  9
$EXTMAX
 10
70.2056
 20
44.3218
 30
0.0000
  0
ENDSEC
  0
SECTION
  2
TABLES
  0
TABLE
  2
LTYPE
 70
1
  0
LTYPE
  2
CONTINUOUS
 70
64
  3
Solid line
 72
65
 73
0
 40
0
  0
ENDTAB
  0
TABLE
  2
LAYER
 70
255
  0
LAYER
  2
20
 70
64
 62
7
  6
CONTINUOUS
  0
LAYER
  2
39
 70
64
 62
22
  6
CONTINUOUS
  0
LAYER
  2
40
 70
64
 62
175
  6
CONTINUOUS
  0
ENDTAB
  0
ENDSEC
  0
SECTION
  2
BLOCKS
  0
BLOCK
  8
0
  2
RECT
 70
64
 10
0.0000
 20
0.0000
 30
0.0000
  3
RECT
  0
SOLID
  8
0
 10
-0.5000
 20
-0.5000
 30
0.0000
 11
0.5000
 21
-0.5000
 31
0.0000
 12
-0.5000
 22
0.5000
 32
0.0000
 13
0.5000
 23
0.5000
 33
0.0000
  0
ENDBLK
  8
0
  0
BLOCK
  8
0
  2
PIE
 70
64
 10
0.0000
 20
0.0000
 30
0.0000
  3
PIE
  0
CIRCLE
  8
0
 10
0.0000
 20
0.0000
 30
0.0000
 40
0.5000
  0
ENDBLK
  8
0
  0
BLOCK
  8
0
  2
OCTAGONP
 70
64
 10
0.0000
 20
0.0000
 30
0.0000
  3
OCTAGONP
  0
POLYLINE
  8
0
 66
1
 10
0.0000
 20
0.0000
 30
0.0000
 40
0.0000
 41
0.0000
 70
1
  0
VERTEX
  8
0
 10
-0.5000
 20
-0.2071
 30
0.0000
  0
VERTEX
  8
0
 10
-0.5000
 20
0.2071
 30
0.0000
  0
VERTEX
  8
0
 10
-0.2071
 20
0.5000
 30
0.0000
  0
VERTEX
  8
0
 10
0.2071
 20
0.5000
 30
0.0000
  0
VERTEX
  8
0
 10
0.5000
 20
0.2071
 30
0.0000
  0
VERTEX
  8
0
 10
0.5000
 20
-0.2071
 30
0.0000
  0
VERTEX
  8
0
 10
0.2071
 20
-0.5000
 30
0.0000
  0
VERTEX
  8
0
 10
-0.2071
 20
-0.5000
 30
0.0000
  0
SEQEND
  8
0
  0
ENDBLK
  8
0
  0
BLOCK
  8
0
  2
SQUAREP
 70
64
 10
0.0000
 20
0.0000
 30
0.0000
  3
SQUAREP
  0
SOLID
  8
0
 10
-0.5000
 20
-0.5000
 30
0.0000
 11
0.5000
 21
-0.5000
 31
0.0000
 12
-0.5000
 22
0.5000
 32
0.0000
 13
0.5000
 23
0.5000
 33
0.0000
  0
ENDBLK
  8
0
  0
BLOCK
  8
0
  2
ROUNDP
 70
64
 10
0.0000
 20
0.0000
 30
0.0000
  3
ROUNDP
  0
CIRCLE
  8
0
 10
0.0000
 20
0.0000
 30
0.0000
 40
0.5000
  0
ENDBLK
  8
0
  0
BLOCK
  8
0
  2
ANNULUSP
 70
64
 10
0.0000
 20
0.0000
 30
0.0000
  3
ANNULUSP
  0
CIRCLE
  8
0
 10
0.0000
 20
0.0000
 30
0.0000
 40
0.5000
  0
ENDBLK
  8
0
  0
BLOCK
  8
0
  2
THERMALP
 70
64
 10
0.0000
 20
0.0000
 30
0.0000
  3
THERMALP
  0
LINE
  8
0
 10
-0.2379
 20
0.4500
 30
0.0000
 11
0.2379
 21
0.4500
 31
0.0000
  0
LINE
  8
0
 10
0.4500
 20
0.2379
 30
0.0000
 11
0.4500
 21
-0.2379
 31
0.0000
  0
LINE
  8
0
 10
0.2379
 20
-0.4500
 30
0.0000
 11
-0.2379
 21
-0.4500
 31
0.0000
  0
LINE
  8
0
 10
-0.4500
 20
-0.2379
 30
0.0000
 11
-0.4500
 21
0.2379
 31
0.0000
  0
ENDBLK
  8
0
  0
BLOCK
  8
0
  2
OCTAGONV
 70
64
 10
0.0000
 20
0.0000
 30
0.0000
  3
OCTAGONV
  0
POLYLINE
  8
0
 66
1
 10
0.0000
 20
0.0000
 30
0.0000
 40
0.0000
 41
0.0000
 70
1
  0
VERTEX
  8
0
 10
-0.5000
 20
-0.2071
 30
0.0000
  0
VERTEX
  8
0
 10
-0.5000
 20
0.2071
 30
0.0000
  0
VERTEX
  8
0
 10
-0.2071
 20
0.5000
 30
0.0000
  0
VERTEX
  8
0
 10
0.2071
 20
0.5000
 30
0.0000
  0
VERTEX
  8
0
 10
0.5000
 20
0.2071
 30
0.0000
  0
VERTEX
  8
0
 10
0.5000
 20
-0.2071
 30
0.0000
  0
VERTEX
  8
0
 10
0.2071
 20
-0.5000
 30
0.0000
  0
VERTEX
  8
0
 10
-0.2071
 20
-0.5000
 30
0.0000
  0
SEQEND
  8
0
  0
ENDBLK
  8
0
  0
BLOCK
  8
0
  2
SQUAREV
 70
64
 10
0.0000
 20
0.0000
 30
0.0000
  3
SQUAREV
  0
SOLID
  8
0
 10
-0.5000
 20
-0.5000
 30
0.0000
 11
0.5000
 21
-0.5000
 31
0.0000
 12
-0.5000
 22
0.5000
 32
0.0000
 13
0.5000
 23
0.5000
 33
0.0000
  0
ENDBLK
  8
0
  0
BLOCK
  8
0
  2
ROUNDV
 70
64
 10
0.0000
 20
0.0000
 30
0.0000
  3
ROUNDV
  0
CIRCLE
  8
0
 10
0.0000
 20
0.0000
 30
0.0000
 40
0.5000
  0
ENDBLK
  8
0
  0
BLOCK
  8
0
  2
ANNULUSV
 70
64
 10
0.0000
 20
0.0000
 30
0.0000
  3
ANNULUSV
  0
CIRCLE
  8
0
 10
0.0000
 20
0.0000
 30
0.0000
 40
0.5000
  0
ENDBLK
  8
0
  0
BLOCK
  8
0
  2
THERMALV
 70
64
 10
0.0000
 20
0.0000
 30
0.0000
  3
THERMALV
  0
LINE
  8
0
 10
-0.2379
 20
0.4500
 30
0.0000
 11
0.2379
 21
0.4500
 31
0.0000
  0
LINE
  8
0
 10
0.4500
 20
0.2379
 30
0.0000
 11
0.4500
 21
-0.2379
 31
0.0000
  0
LINE
  8
0
 10
0.2379
 20
-0.4500
 30
0.0000
 11
-0.2379
 21
-0.4500
 31
0.0000
  0
LINE
  8
0
 10
-0.4500
 20
-0.2379
 30
0.0000
 11
-0.4500
 21
0.2379
 31
0.0000
  0
ENDBLK
  8
0
  0
ENDSEC
  0
SECTION
  2
ENTITIES
  0
LINE
  8
20
 10
50.0634
 20
24.7650
 30
0.0000
 11
55.3720
 21
24.7650
 31
0.0000
  0
ARC
  8
20
 10
55.3720
 20
22.2250
 30
0.0000
 40
2.5400
 50
0.0000
 51
90.0000
  0
LINE
  8
20
 10
57.9120
 20
22.2250
 30
0.0000
 11
57.9120
 21
8.2550
 31
0.0000
  0
ARC
  8
20
 10
55.3720
 20
8.2550
 30
0.0000
 40
2.5400
 50
270.0000
 51
0.0000
  0
LINE
  8
20
 10
55.3720
 20
5.7150
 30
0.0000
 11
50.0634
 21
5.7150
 31
0.0000
  0
LINE
  8
20
 10
46.4566
 20
5.7150
 30
0.0000
 11
25.9080
 21
5.7150
 31
0.0000
  0
ARC
  8
20
 10
25.9080
 20
8.2550
 30
0.0000
 40
2.5400
 50
180.0000
 51
270.0000
  0
LINE
  8
20
 10
23.3680
 20
8.2550
 30
0.0000
 11
23.3680
 21
22.2250
 31
0.0000
  0
ARC
  8
20
 10
25.9080
 20
22.2250
 30
0.0000
 40
2.5400
 50
90.0000
 51
180.0000
  0
LINE
  8
20
 10
25.9080
 20
24.7650
 30
0.0000
 11
46.4820
 21
24.7650
 31
0.0000
  0
ARC
  8
20
 10
48.2727
 20
24.7650
 30
0.0000
 40
1.7907
 50
180.0000
 51
0.0000
  0
ARC
  8
20
 10
48.2600
 20
5.7150
 30
0.0000
 40
1.8034
 50
0.0000
 51
180.0000
  0
LINE
  8
40
 10
30.4800
 20
17.5260
 30
0.0000
 11
34.0360
 21
17.5260
 31
0.0000
  0
LINE
  8
40
 10
34.0360
 20
17.5260
 30
0.0000
 11
34.0360
 21
13.7160
 31
0.0000
  0
LINE
  8
40
 10
34.0360
 20
13.7160
 30
0.0000
 11
30.4800
 21
13.7160
 31
0.0000
  0
LINE
  8
40
 10
30.4800
 20
13.7160
 30
0.0000
 11
30.4800
 21
17.5260
 31
0.0000
  0
LINE
  8
40
 10
30.9880
 20
12.1920
 30
0.0000
 11
33.5280
 21
12.1920
 31
0.0000
  0
LINE
  8
40
 10
33.5280
 20
12.1920
 30
0.0000
 11
33.5280
 21
8.8900
 31
0.0000
  0
LINE
  8
40
 10
33.5280
 20
8.8900
 30
0.0000
 11
30.9880
 21
8.8900
 31
0.0000
  0
LINE
  8
40
 10
30.9880
 20
8.8900
 30
0.0000
 11
30.9880
 21
12.1920
 31
0.0000
  0
LINE
  8
40
 10
35.5600
 20
7.3660
 30
0.0000
 11
44.9580
 21
7.3660
 31
0.0000
  0
LINE
  8
40
 10
44.9580
 20
7.3660
 30
0.0000
 11
45.7200
 21
8.1280
 31
0.0000
  0
LINE
  8
40
 10
45.7200
 20
8.1280
 30
0.0000
 11
45.7200
 21
9.3980
 31
0.0000
  0
LINE
  8
40
 10
45.7200
 20
9.3980
 30
0.0000
 11
44.9580
 21
10.1600
 31
0.0000
  0
LINE
  8
40
 10
44.9580
 20
10.1600
 30
0.0000
 11
43.4340
 21
10.1600
 31
0.0000
  0
LINE
  8
40
 10
43.4340
 20
10.1600
 30
0.0000
 11
43.4340
 21
23.1140
 31
0.0000
  0
LINE
  8
40
 10
43.4340
 20
23.1140
 30
0.0000
 11
35.5600
 21
23.1140
 31
0.0000
  0
LINE
  8
40
 10
35.5600
 20
23.1140
 30
0.0000
 11
35.5600
 21
7.3660
 31
0.0000
  0
LINE
  8
40
 10
45.4660
 20
10.6680
 30
0.0000
 11
51.3080
 21
10.6680
 31
0.0000
  0
LINE
  8
40
 10
51.3080
 20
10.6680
 30
0.0000
 11
51.3080
 21
19.8120
 31
0.0000
  0
LINE
  8
40
 10
51.3080
 20
19.8120
 30
0.0000
 11
45.4660
 21
19.8120
 31
0.0000
  0
LINE
  8
40
 10
45.4660
 20
19.8120
 30
0.0000
 11
45.4660
 21
10.6680
 31
0.0000
  0
LINE
  8
40
 10
53.5940
 20
11.6840
 30
0.0000
 11
56.6420
 21
11.6840
 31
0.0000
  0
LINE
  8
40
 10
56.6420
 20
11.6840
 30
0.0000
 11
56.6420
 21
18.7960
 31
0.0000
  0
LINE
  8
40
 10
56.6420
 20
18.7960
 30
0.0000
 11
53.5940
 21
18.7960
 31
0.0000
  0
LINE
  8
40
 10
53.5940
 20
18.7960
 30
0.0000
 11
53.5940
 21
11.6840
 31
0.0000
  0
INSERT
  8
40
  2
RECT
 10
32.2580
 20
15.6210
 30
0.0000
 41
3.5560
 42
3.8100
 43
1.0000
 50
0.0000
  0
INSERT
  8
40
  2
RECT
 10
32.2580
 20
10.5410
 30
0.0000
 41
2.5400
 42
3.3020
 43
1.0000
 50
0.0000
  0
INSERT
  8
40
  2
RECT
 10
39.4970
 20
15.2400
 30
0.0000
 41
7.8740
 42
15.7480
 43
1.0000
 50
0.0000
  0
INSERT
  8
40
  2
RECT
 10
44.5770
 20
8.7630
 30
0.0000
 41
2.2860
 42
2.7940
 43
1.0000
 50
0.0000
  0
INSERT
  8
40
  2
RECT
 10
55.1180
 20
15.2400
 30
0.0000
 41
3.0480
 42
7.1120
 43
1.0000
 50
0.0000
  0
INSERT
  8
40
  2
RECT
 10
48.3870
 20
15.2400
 30
0.0000
 41
5.8420
 42
9.1440
 43
1.0000
 50
0.0000
  0
ENDSEC
  0
EOF
